<svg xmlns="http://www.w3.org/2000/svg" viewBox="0 0 64 64" width="64" height="64">
  <defs>
    <!-- Mask to create sprocket holes -->
    <mask id="filmMaskIcon-white">
      <rect width="64" height="64" fill="white"/>

      <!-- Outer edge perforations -->
      <rect x="35" y="5" width="3" height="5" rx="0.5" fill="black"/>
      <rect x="44" y="8" width="3" height="5" rx="0.5" fill="black"/>
      <rect x="51" y="14" width="3" height="5" rx="0.5" fill="black"/>
      <rect x="54" y="23" width="3" height="5" rx="0.5" fill="black"/>
      <rect x="51" y="32" width="3" height="5" rx="0.5" fill="black"/>
      <rect x="44" y="38" width="3" height="5" rx="0.5" fill="black"/>
      <rect x="35" y="42" width="3" height="5" rx="0.5" fill="black"/>
      <rect x="26" y="45" width="3" height="5" rx="0.5" fill="black"/>
      <rect x="17" y="48" width="3" height="5" rx="0.5" fill="black"/>
      <rect x="10" y="53" width="3" height="5" rx="0.5" fill="black"/>
      <rect x="17" y="58" width="3" height="5" rx="0.5" fill="black"/>
      <rect x="26" y="59" width="3" height="5" rx="0.5" fill="black"/>
      <rect x="35" y="59" width="3" height="5" rx="0.5" fill="black"/>

      <!-- Inner edge perforations -->
      <rect x="27" y="9" width="3" height="5" rx="0.5" fill="black"/>
      <rect x="36" y="12" width="3" height="5" rx="0.5" fill="black"/>
      <rect x="43" y="17" width="3" height="5" rx="0.5" fill="black"/>
      <rect x="47" y="25" width="3" height="5" rx="0.5" fill="black"/>
      <rect x="44" y="33" width="3" height="5" rx="0.5" fill="black"/>
      <rect x="37" y="38" width="3" height="5" rx="0.5" fill="black"/>
      <rect x="28" y="42" width="3" height="5" rx="0.5" fill="black"/>
      <rect x="19" y="45" width="3" height="5" rx="0.5" fill="black"/>
      <rect x="18" y="53" width="3" height="5" rx="0.5" fill="black"/>
      <rect x="27" y="55" width="3" height="5" rx="0.5" fill="black"/>
      <rect x="36" y="55" width="3" height="5" rx="0.5" fill="black"/>
    </mask>
  </defs>

  <!-- Film Strip S -->
  <path d="M 30 3
           C 56 3, 62 15, 62 28
           C 62 42, 46 47, 30 51
           C 14 55, 6 57, 6 61
           C 6 65, 16 68, 40 68
           L 44 68
           L 44 63
           C 20 63, 12 61, 12 59
           C 12 55, 24 52, 40 48
           C 56 44, 68 37, 68 28
           C 68 12, 52 0, 30 0
           Z"
        fill="#ffffff"
        mask="url(#filmMaskIcon-white)"/>
</svg>