<svg xmlns="http://www.w3.org/2000/svg" viewBox="0 0 56 60" width="56" height="60">
  <defs>
    <!-- Mask for sprocket holes -->
    <mask id="iconMask-dark">
      <rect width="56" height="60" fill="white"/>

      <!-- Top curve outer perforations -->
      <rect x="18" y="3" width="3" height="5" rx="0.5" fill="black"/>
      <rect x="27" y="2" width="3" height="5" rx="0.5" fill="black"/>
      <rect x="36" y="3" width="3" height="5" rx="0.5" fill="black"/>
      <rect x="44" y="6" width="3" height="5" rx="0.5" fill="black"/>
      <rect x="50" y="12" width="3" height="5" rx="0.5" fill="black"/>

      <!-- Top curve inner perforations -->
      <rect x="20" y="11" width="3" height="5" rx="0.5" fill="black"/>
      <rect x="29" y="10" width="3" height="5" rx="0.5" fill="black"/>
      <rect x="38" y="11" width="3" height="5" rx="0.5" fill="black"/>
      <rect x="45" y="16" width="3" height="5" rx="0.5" fill="black"/>

      <!-- Middle section perforations -->
      <rect x="46" y="24" width="3" height="5" rx="0.5" fill="black"/>
      <rect x="40" y="31" width="3" height="5" rx="0.5" fill="black"/>
      <rect x="31" y="35" width="3" height="5" rx="0.5" fill="black"/>
      <rect x="22" y="35" width="3" height="5" rx="0.5" fill="black"/>
      <rect x="13" y="33" width="3" height="5" rx="0.5" fill="black"/>

      <!-- Middle inner -->
      <rect x="40" y="26" width="3" height="5" rx="0.5" fill="black"/>
      <rect x="34" y="31" width="3" height="5" rx="0.5" fill="black"/>
      <rect x="25" y="32" width="3" height="5" rx="0.5" fill="black"/>
      <rect x="16" y="30" width="3" height="5" rx="0.5" fill="black"/>

      <!-- Bottom curve outer perforations -->
      <rect x="6" y="40" width="3" height="5" rx="0.5" fill="black"/>
      <rect x="4" y="49" width="3" height="5" rx="0.5" fill="black"/>
      <rect x="12" y="55" width="3" height="5" rx="0.5" fill="black"/>
      <rect x="21" y="57" width="3" height="5" rx="0.5" fill="black"/>
      <rect x="30" y="57" width="3" height="5" rx="0.5" fill="black"/>
      <rect x="39" y="55" width="3" height="5" rx="0.5" fill="black"/>

      <!-- Bottom curve inner perforations -->
      <rect x="11" y="43" width="3" height="5" rx="0.5" fill="black"/>
      <rect x="11" y="50" width="3" height="5" rx="0.5" fill="black"/>
      <rect x="20" y="52" width="3" height="5" rx="0.5" fill="black"/>
      <rect x="29" y="52" width="3" height="5" rx="0.5" fill="black"/>
      <rect x="38" y="50" width="3" height="5" rx="0.5" fill="black"/>
    </mask>
  </defs>

  <!-- Film Strip S -->
  <path d="M 46 5
           C 28 5, 12 10, 12 22
           C 12 34, 28 36, 36 38
           C 44 40, 52 42, 52 50
           C 52 60, 36 64, 18 64
           L 18 56
           C 32 56, 44 54, 44 50
           C 44 44, 28 42, 20 40
           C 12 38, 2 32, 2 22
           C 2 8, 20 0, 46 0
           Z"
        fill="#1a1a1a"
        mask="url(#iconMask-dark)"/>
</svg>