<svg xmlns="http://www.w3.org/2000/svg" viewBox="0 0 64 64" width="64" height="64">
  <!-- Black circular background -->
  <circle cx="32" cy="32" r="32" fill="#000000"/>

  <defs>
    <!-- Mask for sprocket holes -->
    <mask id="faviconMask">
      <rect width="64" height="64" fill="white"/>

      <!-- Top curve outer perforations -->
      <rect x="22" y="10" width="2.5" height="4" rx="0.5" fill="black"/>
      <rect x="29" y="9" width="2.5" height="4" rx="0.5" fill="black"/>
      <rect x="36" y="10" width="2.5" height="4" rx="0.5" fill="black"/>
      <rect x="42" y="13" width="2.5" height="4" rx="0.5" fill="black"/>
      <rect x="47" y="17" width="2.5" height="4" rx="0.5" fill="black"/>

      <!-- Top curve inner perforations -->
      <rect x="24" y="16" width="2.5" height="4" rx="0.5" fill="black"/>
      <rect x="31" y="15" width="2.5" height="4" rx="0.5" fill="black"/>
      <rect x="38" y="16" width="2.5" height="4" rx="0.5" fill="black"/>
      <rect x="44" y="20" width="2.5" height="4" rx="0.5" fill="black"/>

      <!-- Middle section perforations -->
      <rect x="45" y="27" width="2.5" height="4" rx="0.5" fill="black"/>
      <rect x="40" y="32" width="2.5" height="4" rx="0.5" fill="black"/>
      <rect x="33" y="35" width="2.5" height="4" rx="0.5" fill="black"/>
      <rect x="26" y="35" width="2.5" height="4" rx="0.5" fill="black"/>
      <rect x="19" y="33" width="2.5" height="4" rx="0.5" fill="black"/>

      <!-- Middle inner -->
      <rect x="40" y="28" width="2.5" height="4" rx="0.5" fill="black"/>
      <rect x="35" y="32" width="2.5" height="4" rx="0.5" fill="black"/>
      <rect x="28" y="33" width="2.5" height="4" rx="0.5" fill="black"/>
      <rect x="21" y="31" width="2.5" height="4" rx="0.5" fill="black"/>

      <!-- Bottom curve outer perforations -->
      <rect x="14" y="39" width="2.5" height="4" rx="0.5" fill="black"/>
      <rect x="12" y="46" width="2.5" height="4" rx="0.5" fill="black"/>
      <rect x="17" y="51" width="2.5" height="4" rx="0.5" fill="black"/>
      <rect x="24" y="53" width="2.5" height="4" rx="0.5" fill="black"/>
      <rect x="31" y="53" width="2.5" height="4" rx="0.5" fill="black"/>
      <rect x="38" y="51" width="2.5" height="4" rx="0.5" fill="black"/>

      <!-- Bottom curve inner perforations -->
      <rect x="17" y="42" width="2.5" height="4" rx="0.5" fill="black"/>
      <rect x="17" y="48" width="2.5" height="4" rx="0.5" fill="black"/>
      <rect x="24" y="49" width="2.5" height="4" rx="0.5" fill="black"/>
      <rect x="31" y="49" width="2.5" height="4" rx="0.5" fill="black"/>
      <rect x="38" y="48" width="2.5" height="4" rx="0.5" fill="black"/>
    </mask>
  </defs>

  <!-- Film Strip S - centered and scaled -->
  <path d="M 44 11
           C 30 11, 17 15, 17 24
           C 17 33, 30 35, 36 37
           C 42 39, 49 41, 49 47
           C 49 55, 36 58, 22 58
           L 22 52
           C 33 52, 42 50, 42 47
           C 42 42, 30 40, 24 39
           C 18 38, 10 33, 10 24
           C 10 13, 24 7, 44 7
           Z"
        fill="#ffffff"
        mask="url(#faviconMask)"/>
</svg>
